<svg xmlns="http://www.w3.org/2000/svg" width="24" height="24" viewBox="0 0 24 24">
  <defs>
    <style>
      .cls-1 {
        fill: #517aff;
        fill-rule: evenodd;
      }
    </style>
  </defs>
  <path id="military_channel.svg" class="cls-1" d="M422,487.094h-1.252a9.811,9.811,0,0,1-8.654,8.652V497a1,1,0,0,1-1,1h-0.188a1,1,0,0,1-1-1v-1.252a9.811,9.811,0,0,1-8.652-8.654H400a1,1,0,0,1-1-1v-0.188a1,1,0,0,1,1-1h1.254a9.811,9.811,0,0,1,8.652-8.654V475a1,1,0,0,1,1-1h0.188a1,1,0,0,1,1,1v1.252a9.811,9.811,0,0,1,8.652,8.654H422a1,1,0,0,1,1,1v0.188A1,1,0,0,1,422,487.094Zm-3.469-2.188H418.9a7.982,7.982,0,0,0-6.805-6.823v0.386a1,1,0,0,1-1,1h-0.188a1,1,0,0,1-1-1v-0.386a7.983,7.983,0,0,0-6.805,6.823h0.368a1,1,0,0,1,1,1v0.188a1,1,0,0,1-1,1H403.1a7.983,7.983,0,0,0,6.805,6.823v-0.386a1,1,0,0,1,1-1h0.188a1,1,0,0,1,1,1V493.9a7.983,7.983,0,0,0,6.823-6.805h-0.386a1,1,0,0,1-1-1v-0.188A1,1,0,0,1,418.531,484.906ZM411,491a5,5,0,1,1,5-5A5,5,0,0,1,411,491Z" transform="translate(-399 -474)"/>
</svg>
