<svg xmlns="http://www.w3.org/2000/svg" width="26" height="11.438" viewBox="0 0 26 11.438">
  <defs>
    <style>
      .cls-1 {
        fill: #9b75fb;
        fill-rule: evenodd;
      }
    </style>
  </defs>
  <path id="fashion_channel.svg" class="cls-1" d="M423,712.576a1,1,0,0,1-1-1v-3a1,1,0,0,1,2,0v3A1,1,0,0,1,423,712.576ZM417,719c-2.471,0-4.279-.311-5-2a8.039,8.039,0,0,1-.488-3.829,2.522,2.522,0,0,0-1.071-.17c-0.024,0-.038,0-0.061,0a7.272,7.272,0,0,1-.38,4c-0.676,1.781-3.343,2-5,2a4.6,4.6,0,0,1-4-3c-0.866-1.987-.62-5.072,0-6,0.822-1.23,2.128-1,3-1a9.116,9.116,0,0,1,4.65.917,14.163,14.163,0,0,0,4.878-.017A9.331,9.331,0,0,1,418,709c1.809,0,2.506.239,3,1,0.579,0.892.8,3.975,0,6A4.494,4.494,0,0,1,417,719Zm-18-6.424a1,1,0,0,1-1-1v-3a1,1,0,0,1,2,0v3A1,1,0,0,1,399,712.576Z" transform="translate(-398 -707.562)"/>
</svg>
