<svg xmlns="http://www.w3.org/2000/svg" width="22" height="15" viewBox="0 0 22 15">
  <defs>
    <style>
      .cls-1 {
        fill: #44a8ff;
        fill-rule: evenodd;
      }
    </style>
  </defs>
  <path id="travel_channel.svg" class="cls-1" d="M421.792,797.2l-8.548-12.78a0.868,0.868,0,0,0-.707-0.411h-0.006a0.861,0.861,0,0,0-.7.4l-2.365,3.437a1.3,1.3,0,0,0-.016,1.4l2.373,3.656-1.134,1.169c-1.536-2.478-3.54-5.716-3.54-5.716a0.828,0.828,0,0,0-1.468,0l-5.5,8.881a1.308,1.308,0,0,0-.087,1.163,0.917,0.917,0,0,0,.82.614h20.17a0.922,0.922,0,0,0,.827-0.632A1.305,1.305,0,0,0,421.792,797.2Z" transform="translate(-400 -784)"/>
</svg>
