<svg xmlns="http://www.w3.org/2000/svg" width="20.062" height="20.031" viewBox="0 0 20.062 20.031">
  <defs>
    <style>
      .cls-1 {
        fill: #2fd38f;
        fill-rule: evenodd;
      }
    </style>
  </defs>
  <path id="explore_channel.svg" class="cls-1" d="M420.21,875.556c1.581,2.507.627,4.444-1.1,4.444h-16.5c-1.141,0-2.353-2.317-1.1-4.444l5.467-9.224V862a0.982,0.982,0,0,1-.944-0.81,0.849,0.849,0,0,1,.765-1.2h8.111A0.725,0.725,0,0,1,415,860h0a1,1,0,0,1,0,2h-0.259v4.332ZM410.5,878a1.5,1.5,0,1,0-1.5-1.5A1.5,1.5,0,0,0,410.5,878Zm-2.5-4.99a1.018,1.018,0,0,0,1-1.01,1.006,1.006,0,0,0-2.012,0A1.021,1.021,0,0,0,408.005,873.01ZM409,862v5l-1.013,2.015h6L413,867v-5h-4Z" transform="translate(-400.969 -859.969)"/>
</svg>
