<svg xmlns="http://www.w3.org/2000/svg" width="20.031" height="19.969" viewBox="0 0 20.031 19.969">
  <defs>
    <style>
      .cls-1 {
        fill: #ffc000;
        fill-rule: evenodd;
      }
    </style>
  </defs>
  <path id="childcare_channel.svg" class="cls-1" d="M420.359,942.514l-0.917.917a3.935,3.935,0,0,1,.112,1.483,4.306,4.306,0,0,1-.389,1.417,1.755,1.755,0,0,1,.229.909,1.827,1.827,0,0,1-.528,1.243l-0.05.04-0.141.141a1.765,1.765,0,0,1-2.473.053l-4.933-4.924a1.687,1.687,0,0,1-.474-1.228,1.857,1.857,0,0,1,.528-1.255l0.039-.028,0.151-.147,0.051-.056a1.822,1.822,0,0,1,1.189-.482,1.723,1.723,0,0,1,.9.234,4.512,4.512,0,0,1,1.418-.4,4.435,4.435,0,0,1,1.5.111l0.911-.91A2.2,2.2,0,0,1,418.97,939a2,2,0,0,1,1.452.574,2.019,2.019,0,0,1,.575,1.462A2.177,2.177,0,0,1,420.359,942.514Zm-4.595,7.134a2.331,2.331,0,0,1,.01,3.238l-0.05.039-5.348,5.357a2.348,2.348,0,0,1-3.23.09l-0.061-.05-5.448-5.45a2.334,2.334,0,0,1,.041-3.277l5.365-5.351v-0.006a2.348,2.348,0,0,1,3.279-.04V944.2ZM406.7,948.6a0.946,0.946,0,1,0-1.339,1.337l2.009,2.006a0.946,0.946,0,0,0,1.339-1.337Zm1.339-2.673a0.944,0.944,0,0,0,0,1.337l2.008,2a0.946,0.946,0,0,0,1.339-1.337l-2.008-2A0.946,0.946,0,0,0,408.039,945.926Z" transform="translate(-400.969 -939)"/>
</svg>
