<svg xmlns="http://www.w3.org/2000/svg" width="20" height="20" viewBox="0 0 20 20">
  <defs>
    <style>
      .cls-1 {
        fill: #7e91f2;
        fill-rule: evenodd;
      }
    </style>
  </defs>
  <path id="article_channel.svg" class="cls-1" d="M416,1067a4.958,4.958,0,0,1-2.561-.71,2.5,2.5,0,0,1-2.438,1.96,0.674,0.674,0,1,0-1.25,0,2.495,2.495,0,0,1-4.76,1.05c-0.9,1.47-1.263,1.93-1.263,5.88,0,0-.148,1.82-1.411,1.82a1.649,1.649,0,0,1-1.316-1.82c0-12.76,10-18.19,15-18.18A5,5,0,1,1,416,1067Zm-10,8h11a1,1,0,0,1,0,2H406A1,1,0,0,1,406,1075Z" transform="translate(-401 -1057)"/>
</svg>
