<svg xmlns="http://www.w3.org/2000/svg" width="18" height="21" viewBox="0 0 18 21">
  <defs>
    <style>
      .cls-1 {
        fill: #ff8b11;
        fill-rule: evenodd;
      }
    </style>
  </defs>
  <path id="food_channel.svg" class="cls-1" d="M416.987,909.863l0.023,8.392c0.006,1.464-.918,2.741-1.983,2.733a1.775,1.775,0,0,1-1.411-.813,3.35,3.35,0,0,1-.591-1.947L413,909.859A3.99,3.99,0,0,1,410,906v-2a3.982,3.982,0,0,1,2-3.445V905.5a0.5,0.5,0,0,0,.5.5h1a0.5,0.5,0,0,0,.5-0.5V900h2v5.5a0.5,0.5,0,0,0,.5.5h1a0.5,0.5,0,0,0,.5-0.5v-4.945A3.982,3.982,0,0,1,420,904v2A3.993,3.993,0,0,1,416.987,909.863ZM406.5,921c-0.873,0-1.466-1.27-1.471-2.772l-0.022-3.287-1.213-.029A1.828,1.828,0,0,1,402,913.1l-0.008-.754c0-6.113,1.968-11.434,4.624-12.273a1.719,1.719,0,0,1,.881.036,0.913,0.913,0,0,1,.436.771l0.063,13.143,0.015,0.076a0.8,0.8,0,0,1-.025.12l0.027,4.033C408.018,919.719,407.2,921,406.5,921Z" transform="translate(-402 -900)"/>
</svg>
