<svg xmlns="http://www.w3.org/2000/svg" width="25" height="17" viewBox="0 0 25 17">
  <defs>
    <style>
      .cls-1 {
        fill: #ff5f67;
        fill-rule: evenodd;
      }
    </style>
  </defs>
  <path id="international_channel.svg" class="cls-1" d="M418.7,532.736a8.4,8.4,0,0,1-5.571,6.855,7.764,7.764,0,0,1-2.472.4,7.909,7.909,0,0,1-5.876-2.625,16.849,16.849,0,0,1-1.911.113c-1.832,0-3.992-.343-4.468-1.9-0.663-2.175,2.671-4.417,4.209-5.319a8.751,8.751,0,0,1,.825-2.662,8.169,8.169,0,0,1,4.753-4.2,7.772,7.772,0,0,1,2.471-.4,7.942,7.942,0,0,1,5.877,2.619c1.752-.193,5.715-0.38,6.378,1.794S420.23,531.837,418.7,532.736Zm-15.786,1.343a8.726,8.726,0,0,1-.352-1.813c-1.594,1.08-2.777,2.3-2.622,2.8s1.794,0.788,3.69.7A8.556,8.556,0,0,1,402.909,534.079Zm8.256-8.822a6.283,6.283,0,0,0-.8-0.127,0.838,0.838,0,0,0-.147,1.67,4.571,4.571,0,0,1,.587.093,0.8,0.8,0,0,0,.18.021,0.825,0.825,0,0,0,.8-0.656A0.838,0.838,0,0,0,411.165,525.257Zm4.53,4.062a6.326,6.326,0,0,0-1.945-2.78,0.807,0.807,0,0,0-1.153.123,0.851,0.851,0,0,0,.121,1.179,4.661,4.661,0,0,1,1.433,2.042,0.821,0.821,0,0,0,.772.557,0.786,0.786,0,0,0,.276-0.05A0.841,0.841,0,0,0,415.7,529.319Zm1.99-2.092a8.781,8.781,0,0,1,1.066,3.5c1.6-1.08,2.777-2.3,2.621-2.8S419.578,527.141,417.685,527.227Zm-18.237,1.837a1.51,1.51,0,1,1,1.444-1.509A1.477,1.477,0,0,1,399.448,529.064Z" transform="translate(-398 -523)"/>
</svg>
