<svg xmlns="http://www.w3.org/2000/svg" width="24" height="12" viewBox="0 0 24 12">
  <defs>
    <style>
      .cls-1 {
        fill: #85da46;
        fill-rule: evenodd;
      }
    </style>
  </defs>
  <path id="game_channel.svg" class="cls-1" d="M417,747H405a6,6,0,0,0,0,12,6.092,6.092,0,0,0,5.2-3h1.6a6.092,6.092,0,0,0,5.2,3A6,6,0,0,0,417,747Zm-10,7h-1v1a1,1,0,0,1-2,0v-1h-1a1,1,0,0,1,0-2h1v-1a1,1,0,0,1,2,0v1h1A1,1,0,0,1,407,754Zm12.7-1.3-2,2a0.967,0.967,0,0,1-1.4,0,0.967,0.967,0,0,1,0-1.4l2-2A0.99,0.99,0,0,1,419.7,752.7Z" transform="translate(-399 -747)"/>
</svg>
